<svg width="60" height="60" viewBox="0 0 60 60" fill="none" xmlns="http://www.w3.org/2000/svg">
<rect width="60" height="60" rx="12" fill="#233E93"/>
<path d="M30 10C18.9547 10 10 18.954 10 30C10 41.0453 18.9547 50 30 50C41.0453 50 50 41.0453 50 30C50 18.954 41.0453 10 30 10ZM39.806 16.9807V19.5147H33.436L32.8033 16.9807H39.806ZM33.436 20.148H39.806V23.3153C39.806 26.4913 33.436 26.4913 33.436 23.3153C33.436 22.9487 33.436 22.496 33.436 22.0487H30.902L33.436 20.148ZM29.616 41.6847H20.2827V37.6847H16.2827V28.352H20.2827V37.6847H29.616V41.6847ZM25.9833 36.518H22.1827L31.184 27.1153H31.1907H34.9847H40.7853L31.19 36.7213V31.078L25.9833 36.518ZM42.384 41.686H31.19V38.3227H42.384V41.686ZM42.384 37.2033H32.3087L42.384 27.116V37.2033Z" fill="#ffffff"/>
</svg>
