<svg width="60" height="60" viewBox="0 0 60 60" fill="none" xmlns="http://www.w3.org/2000/svg">
<rect width="60" height="60" rx="12" fill="#233E93"/>
<path fill-rule="evenodd" clip-rule="evenodd" d="M13.0731 13C12.258 13 11.4764 13.3161 10.9001 13.8787C10.3238 14.4413 10 15.2044 10 16V38C10 38.7956 10.3238 39.5587 10.9001 40.1213C11.4764 40.6839 12.258 41 13.0731 41H14.0974C14.0974 42.5913 14.745 44.1174 15.8976 45.2426C17.0502 46.3679 18.6135 47 20.2436 47C21.8737 47 23.4369 46.3679 24.5896 45.2426C25.7422 44.1174 26.3897 42.5913 26.3897 41H34.5846C34.5846 42.5913 35.2322 44.1174 36.3848 45.2426C37.5374 46.3679 39.1007 47 40.7308 47C42.3608 47 43.9241 46.3679 45.0768 45.2426C46.2294 44.1174 46.8769 42.5913 46.8769 41H47.9013C48.7163 41 49.498 40.6839 50.0743 40.1213C50.6506 39.5587 50.9744 38.7956 50.9744 38V31.278C50.9743 30.734 50.8228 30.2003 50.5359 29.734L44.8344 20.456C44.5613 20.0119 44.1751 19.6444 43.7134 19.3893C43.2517 19.1341 42.7302 19 42.1997 19H36.6333V16C36.6333 15.2044 36.3096 14.4413 35.7333 13.8787C35.1569 13.3161 34.3753 13 33.5603 13H13.0731ZM40.7308 43C40.1874 43 39.6663 42.7893 39.2821 42.4142C38.8979 42.0391 38.6821 41.5304 38.6821 41C38.6821 40.4696 38.8979 39.9609 39.2821 39.5858C39.6663 39.2107 40.1874 39 40.7308 39C41.2741 39 41.7952 39.2107 42.1794 39.5858C42.5636 39.9609 42.7795 40.4696 42.7795 41C42.7795 41.5304 42.5636 42.0391 42.1794 42.4142C41.7952 42.7893 41.2741 43 40.7308 43ZM18.1949 41C18.1949 41.5304 18.4107 42.0391 18.7949 42.4142C19.1791 42.7893 19.7002 43 20.2436 43C20.7869 43 21.308 42.7893 21.6923 42.4142C22.0765 42.0391 22.2923 41.5304 22.2923 41C22.2923 40.4696 22.0765 39.9609 21.6923 39.5858C21.308 39.2107 20.7869 39 20.2436 39C19.7002 39 19.1791 39.2107 18.7949 39.5858C18.4107 39.9609 18.1949 40.4696 18.1949 41ZM45.3076 29H36.6333V23H41.6199L45.3076 29Z" fill="#ffffff"/>
</svg>
